<?xml version="1.0" encoding="UTF-8" standalone="no"?>
<!-- Created with Inkscape (http://www.inkscape.org/) -->

<svg
   xmlns:dc="http://purl.org/dc/elements/1.1/"
   xmlns:cc="http://creativecommons.org/ns#"
   xmlns:rdf="http://www.w3.org/1999/02/22-rdf-syntax-ns#"
   xmlns:svg="http://www.w3.org/2000/svg"
   xmlns="http://www.w3.org/2000/svg"
   xmlns:sodipodi="http://sodipodi.sourceforge.net/DTD/sodipodi-0.dtd"
   xmlns:inkscape="http://www.inkscape.org/namespaces/inkscape"
   id="svg2"
   version="1.1"
   inkscape:version="0.47 r22583"
   width="1641"
   height="936"
   sodipodi:docname="SB-skylt2.svg"
   style="display:inline">
  <metadata
     id="metadata8">
    <rdf:RDF>
      <cc:Work
         rdf:about="">
        <dc:format>image/svg+xml</dc:format>
        <dc:type
           rdf:resource="http://purl.org/dc/dcmitype/StillImage" />
        <dc:title></dc:title>
      </cc:Work>
    </rdf:RDF>
  </metadata>
  <defs
     id="defs6">
    <inkscape:perspective
       sodipodi:type="inkscape:persp3d"
       inkscape:vp_x="0 : 0.5 : 1"
       inkscape:vp_y="0 : 1000 : 0"
       inkscape:vp_z="1 : 0.5 : 1"
       inkscape:persp3d-origin="0.5 : 0.33333333 : 1"
       id="perspective10" />
    <inkscape:perspective
       id="perspective3606"
       inkscape:persp3d-origin="0.5 : 0.33333333 : 1"
       inkscape:vp_z="1 : 0.5 : 1"
       inkscape:vp_y="0 : 1000 : 0"
       inkscape:vp_x="0 : 0.5 : 1"
       sodipodi:type="inkscape:persp3d" />
    <inkscape:perspective
       id="perspective3646"
       inkscape:persp3d-origin="0.5 : 0.33333333 : 1"
       inkscape:vp_z="1 : 0.5 : 1"
       inkscape:vp_y="0 : 1000 : 0"
       inkscape:vp_x="0 : 0.5 : 1"
       sodipodi:type="inkscape:persp3d" />
    <inkscape:perspective
       id="perspective3669"
       inkscape:persp3d-origin="0.5 : 0.33333333 : 1"
       inkscape:vp_z="1 : 0.5 : 1"
       inkscape:vp_y="0 : 1000 : 0"
       inkscape:vp_x="0 : 0.5 : 1"
       sodipodi:type="inkscape:persp3d" />
    <inkscape:perspective
       id="perspective3706"
       inkscape:persp3d-origin="0.5 : 0.33333333 : 1"
       inkscape:vp_z="1 : 0.5 : 1"
       inkscape:vp_y="0 : 1000 : 0"
       inkscape:vp_x="0 : 0.5 : 1"
       sodipodi:type="inkscape:persp3d" />
    <inkscape:perspective
       id="perspective3729"
       inkscape:persp3d-origin="0.5 : 0.33333333 : 1"
       inkscape:vp_z="1 : 0.5 : 1"
       inkscape:vp_y="0 : 1000 : 0"
       inkscape:vp_x="0 : 0.5 : 1"
       sodipodi:type="inkscape:persp3d" />
    <inkscape:perspective
       id="perspective3766"
       inkscape:persp3d-origin="0.5 : 0.33333333 : 1"
       inkscape:vp_z="1 : 0.5 : 1"
       inkscape:vp_y="0 : 1000 : 0"
       inkscape:vp_x="0 : 0.5 : 1"
       sodipodi:type="inkscape:persp3d" />
    <inkscape:perspective
       id="perspective3766-8"
       inkscape:persp3d-origin="0.5 : 0.33333333 : 1"
       inkscape:vp_z="1 : 0.5 : 1"
       inkscape:vp_y="0 : 1000 : 0"
       inkscape:vp_x="0 : 0.5 : 1"
       sodipodi:type="inkscape:persp3d" />
    <inkscape:perspective
       id="perspective3810"
       inkscape:persp3d-origin="0.5 : 0.33333333 : 1"
       inkscape:vp_z="1 : 0.5 : 1"
       inkscape:vp_y="0 : 1000 : 0"
       inkscape:vp_x="0 : 0.5 : 1"
       sodipodi:type="inkscape:persp3d" />
    <inkscape:perspective
       id="perspective3853"
       inkscape:persp3d-origin="0.5 : 0.33333333 : 1"
       inkscape:vp_z="1 : 0.5 : 1"
       inkscape:vp_y="0 : 1000 : 0"
       inkscape:vp_x="0 : 0.5 : 1"
       sodipodi:type="inkscape:persp3d" />
    <inkscape:perspective
       id="perspective3853-8"
       inkscape:persp3d-origin="0.5 : 0.33333333 : 1"
       inkscape:vp_z="1 : 0.5 : 1"
       inkscape:vp_y="0 : 1000 : 0"
       inkscape:vp_x="0 : 0.5 : 1"
       sodipodi:type="inkscape:persp3d" />
    <inkscape:perspective
       id="perspective3886"
       inkscape:persp3d-origin="0.5 : 0.33333333 : 1"
       inkscape:vp_z="1 : 0.5 : 1"
       inkscape:vp_y="0 : 1000 : 0"
       inkscape:vp_x="0 : 0.5 : 1"
       sodipodi:type="inkscape:persp3d" />
    <inkscape:perspective
       id="perspective3919"
       inkscape:persp3d-origin="0.5 : 0.33333333 : 1"
       inkscape:vp_z="1 : 0.5 : 1"
       inkscape:vp_y="0 : 1000 : 0"
       inkscape:vp_x="0 : 0.5 : 1"
       sodipodi:type="inkscape:persp3d" />
    <inkscape:perspective
       id="perspective3639"
       inkscape:persp3d-origin="0.5 : 0.33333333 : 1"
       inkscape:vp_z="1 : 0.5 : 1"
       inkscape:vp_y="0 : 1000 : 0"
       inkscape:vp_x="0 : 0.5 : 1"
       sodipodi:type="inkscape:persp3d" />
    <inkscape:perspective
       id="perspective3710"
       inkscape:persp3d-origin="0.5 : 0.33333333 : 1"
       inkscape:vp_z="1 : 0.5 : 1"
       inkscape:vp_y="0 : 1000 : 0"
       inkscape:vp_x="0 : 0.5 : 1"
       sodipodi:type="inkscape:persp3d" />
    <inkscape:perspective
       id="perspective3736"
       inkscape:persp3d-origin="0.5 : 0.33333333 : 1"
       inkscape:vp_z="1 : 0.5 : 1"
       inkscape:vp_y="0 : 1000 : 0"
       inkscape:vp_x="0 : 0.5 : 1"
       sodipodi:type="inkscape:persp3d" />
    <inkscape:perspective
       id="perspective3736-4"
       inkscape:persp3d-origin="0.5 : 0.33333333 : 1"
       inkscape:vp_z="1 : 0.5 : 1"
       inkscape:vp_y="0 : 1000 : 0"
       inkscape:vp_x="0 : 0.5 : 1"
       sodipodi:type="inkscape:persp3d" />
    <inkscape:perspective
       id="perspective3736-3"
       inkscape:persp3d-origin="0.5 : 0.33333333 : 1"
       inkscape:vp_z="1 : 0.5 : 1"
       inkscape:vp_y="0 : 1000 : 0"
       inkscape:vp_x="0 : 0.5 : 1"
       sodipodi:type="inkscape:persp3d" />
    <inkscape:perspective
       id="perspective3736-0"
       inkscape:persp3d-origin="0.5 : 0.33333333 : 1"
       inkscape:vp_z="1 : 0.5 : 1"
       inkscape:vp_y="0 : 1000 : 0"
       inkscape:vp_x="0 : 0.5 : 1"
       sodipodi:type="inkscape:persp3d" />
    <inkscape:perspective
       id="perspective3654"
       inkscape:persp3d-origin="0.5 : 0.33333333 : 1"
       inkscape:vp_z="1 : 0.5 : 1"
       inkscape:vp_y="0 : 1000 : 0"
       inkscape:vp_x="0 : 0.5 : 1"
       sodipodi:type="inkscape:persp3d" />
    <inkscape:perspective
       id="perspective3678"
       inkscape:persp3d-origin="0.5 : 0.33333333 : 1"
       inkscape:vp_z="1 : 0.5 : 1"
       inkscape:vp_y="0 : 1000 : 0"
       inkscape:vp_x="0 : 0.5 : 1"
       sodipodi:type="inkscape:persp3d" />
    <inkscape:perspective
       id="perspective3760"
       inkscape:persp3d-origin="0.5 : 0.33333333 : 1"
       inkscape:vp_z="1 : 0.5 : 1"
       inkscape:vp_y="0 : 1000 : 0"
       inkscape:vp_x="0 : 0.5 : 1"
       sodipodi:type="inkscape:persp3d" />
  </defs>
  <sodipodi:namedview
     pagecolor="#ffffff"
     bordercolor="#666666"
     borderopacity="1"
     objecttolerance="10"
     gridtolerance="10"
     guidetolerance="10"
     inkscape:pageopacity="0"
     inkscape:pageshadow="2"
     inkscape:window-width="1366"
     inkscape:window-height="693"
     id="namedview4"
     showgrid="false"
     inkscape:zoom="0.38271844"
     inkscape:cx="1226.3976"
     inkscape:cy="482.31523"
     inkscape:window-x="0"
     inkscape:window-y="25"
     inkscape:window-maximized="1"
     inkscape:current-layer="layer1" />
  <g
     inkscape:groupmode="layer"
     id="layer1"
     inkscape:label="trace"
     style="display:inline">
    <path
       style="fill:#999999;fill-opacity:1;stroke:#999999;stroke-width:1;stroke-linecap:butt;stroke-linejoin:miter;stroke-miterlimit:4;stroke-opacity:1;stroke-dasharray:none"
       d="m 215.28213,635.32414 c -1.50575,-0.0222 -3.03085,-0.005 -4.59375,0.0312 l -100.96875,0 -0.18105,243.96876 105.3373,0 c 10.0493,0 77.06506,-4.97333 76.4375,-67.3125 -0.43029,-42.74298 -27.34157,-60.16439 -48.375,-60.28125 20.33232,-1.51908 45.27867,-27.481 41.71875,-58.53125 -3.29097,-28.70438 -22.69687,-57.18605 -69.375,-57.87501 l 0,5e-5 z m -56.84375,39.62501 48.375,0 c 20.91658,0.58426 29.25616,15.80446 29.37784,29.57102 0.0902,10.20101 -6.10658,26.86648 -28.65909,26.86648 l -48.71875,0 -0.375,-56.4375 z m 53.28125,97.125 c 20.91658,0.58426 30.09785,19.85405 30.15625,34.34375 0.0584,14.4897 -11.44749,33.65625 -34,33.65625 l -48.71875,-0.34375 0.34375,-67.3125 52.21875,-0.34375 z"
       id="path2822"
       sodipodi:nodetypes="cccccscsccccsccccscccc" />
    <path
       style="fill:#999999;fill-opacity:1;stroke:#999999;stroke-width:1px;stroke-linecap:butt;stroke-linejoin:miter;stroke-opacity:1"
       d="m 461.9375,634.875 -60.21875,0.5625 -69.64169,243.51885 48.08133,0 14.71661,-51.4876 73.875,0 13.19478,51.55308 48.61044,-0.13228 L 461.9375,634.875 z m -29.54545,51.1392 26.14488,101.69603 -53.98295,-0.0171 27.83807,-101.67898 0,5e-5 z"
       id="path3683"
       sodipodi:nodetypes="cccccccccccccc" />
    <path
       style="fill:#999999;fill-opacity:1;stroke:#999999;stroke-width:1px;stroke-linecap:butt;stroke-linejoin:miter;stroke-opacity:1"
       d="m 582.80423,878.85714 -0.79365,-244.97354 49.73545,0.5291 94.97355,162.43386 -0.26455,-162.43386 45.76719,0 -0.26455,244.44444 -46.23015,0.0661 -96.62699,-169.64285 0,169.57671 -46.2963,0 z"
       id="path3688"
       sodipodi:nodetypes="ccccccccccc" />
    <path
       style="fill:#999999;fill-opacity:1;stroke:#999999;stroke-width:1px;stroke-linecap:butt;stroke-linejoin:miter;stroke-opacity:1"
       d="m 846.16402,634.67725 46.95767,-0.13227 0.5291,106.3492 79.62963,-106.3492 57.01058,-0.26456 -71.16402,90.47619 80.48942,154.03439 -54.16666,0 -58.99471,-112.63227 -32.27514,40.21164 0.26455,72.55291 -47.88359,0 -0.39683,-244.24603 z"
       id="path3690"
       sodipodi:nodetypes="ccccccccccccc" />
    <path
       style="fill:#999999;fill-opacity:1;stroke:#999999;stroke-width:1px;stroke-linecap:butt;stroke-linejoin:miter;stroke-opacity:1;display:inline"
       d="m 1089.1534,878.92328 165.5424,-0.0661 0,-40.54233 -116.799,0.0661 0.1323,-65.93915 82.4735,0 0.066,-41.13756 -82.7381,-0.19842 0.1322,-55.22487 113.4922,0.39683 0.2645,-41.60053 -162.5,-0.13227 -0.066,244.3783 z"
       id="path3694"
       sodipodi:nodetypes="ccccccccccccc" />
    <path
       style="fill:#999999;fill-opacity:1;stroke:#999999;stroke-width:1px;stroke-linecap:butt;stroke-linejoin:miter;stroke-opacity:1;display:inline"
       d="m 1315.4396,878.87104 -0.7936,-244.97354 49.7354,0.5291 94.9736,162.43386 -0.2646,-162.43386 45.7672,0 -0.2645,244.44444 -46.2302,0.0661 -96.627,-169.64285 0,169.57671 -46.2963,0 z"
       id="path3688-6"
       sodipodi:nodetypes="ccccccccccc" />
    <path
       style="fill:#999999;fill-opacity:1;stroke:#999999;stroke-width:1;stroke-miterlimit:4;stroke-opacity:1;display:inline"
       d="m 1520.7357,310.82486 92.5926,0 0,40.59906 -66.4035,0.18707 -26.1891,-40.78613 z"
       id="rect3876"
       sodipodi:nodetypes="ccccc" />
    <path
       style="fill:#999999;fill-opacity:1;stroke:#999999;stroke-width:0.9836145;stroke-miterlimit:4;stroke-opacity:1;display:inline"
       d="m 566.9462,209.99665 c -27.40806,0 -45.58771,10.13254 -64.8837,32.71675 l 0.53058,-54.70986 c -10.37964,38.16062 -70.61298,26.46754 -118.03058,27.59021 l 0,17.9375 36.6875,0 0,314.03125 -35.9375,0 0,21.71875 157.15625,0 0,-21.71875 -40.40625,0 0,-112.5 c 19.82657,24.17595 32.16983,31.125 71.78125,31.125 60.94284,0 110.34375,-57.92545 110.34375,-129.40625 0,-71.48081 -56.29846,-126.7846 -117.2413,-126.7846 z m -7.16696,22.37902 c 19.49653,0.0268 31.99771,11.69065 34.78326,52.09308 l 0.3125,101.6875 c -3.18348,46.4421 -16.28267,59.125 -42.9375,59.125 -26.65483,0 -48.78125,-26.478 -48.78125,-59.125 l -0.75,-96.90625 c 4.28569,-36.01281 28.4653,-60.15298 57.37299,-56.87433 z"
       id="rect3901"
       sodipodi:nodetypes="cccccccccccccssccccsccc" />
    <path
       style="fill:#999999;fill-opacity:1;stroke:#999999;stroke-width:1;stroke-miterlimit:4;stroke-opacity:1"
       d="m 900.75,205.71875 c -36.88965,0.25243 -60.61125,25.10521 -70.13259,38.19509 l 0,-50.32033 c -9.95689,25.6245 -45.21165,22.53361 -116.85134,22.66029 l 0,18.10747 36.48393,-0.14252 0,208.09375 -36.9191,0 -0.14252,18.64632 168.17815,0 -0.14253,-18.5038 -49.46641,0 -0.16697,-143.57285 c 2.23805,-30.80091 13.60086,-51.21848 31.41547,-64.29433 -9.56457,36.54761 7.17975,61.23057 37.74396,61.19341 25.29326,0.25191 44.89709,-19.02847 45.03125,-45.03125 0.12122,-23.49541 -18.45724,-43.81654 -45.03125,-45.03125 l -5e-5,0 z"
       id="rect3661"
       sodipodi:nodetypes="cccccccccccccccscc" />
    <path
       style="fill:#999999;fill-opacity:1;stroke:#999999;stroke-width:1.00594974;stroke-miterlimit:4;stroke-opacity:1"
       d="m 1088.1562,74.78125 c -35.4039,0.270926 -61.9491,20.612049 -61.4374,50.21875 -0.1355,31.07944 26.3449,51.30282 62.0624,51.5 34.2777,0.18923 62.7091,-21.33009 62.0626,-51.5 0.5208,-30.044253 -26.8897,-50.492689 -62.6876,-50.21875 z m 1.7188,13.40625 c 11.0483,0 18.0301,7.311623 19.5381,17.77056 1.2338,8.55712 0.9241,27.4105 0.6807,38.91694 0,9.51335 -10.847,17.84375 -21.3126,17.84375 -10.4654,0 -20.6875,-8.8304 -20.6874,-18.34375 -1.1039,-12.98944 -0.5919,-25.45423 0.125,-37.25 0.6403,-10.535347 10.6079,-18.9375 21.6562,-18.9375 z"
       id="path3677"
       sodipodi:nodetypes="ccscccscscsc" />
    <path
       style="fill:#999999;fill-opacity:1;stroke:#999999;stroke-width:1px;stroke-linecap:butt;stroke-linejoin:miter;stroke-opacity:1"
       d="m 1030.8178,216.35595 c -33.89237,10.6226 -49.83032,31.08262 -50.46336,54.9634 -0.63303,23.88079 21.28226,36.39243 34.93136,36.9375 18.5728,0.7417 40.5746,-8.21543 40.9642,-34.75685 0.1565,-10.6634 -1.9991,-22.52965 -28.4062,-34.09375 5.684,-4.44131 11.5918,-10.25338 38.0624,-12.5 37.2396,-3.16061 50.0551,13.90575 50.1602,35.62364 l -0.3614,53.92666 c -17.1466,1.58224 -57.6091,3.59922 -82.9607,7.80923 -21.3135,3.53944 -34.78742,11.68715 -42.96305,16.85922 -33.6259,21.27243 -36.78393,65.99849 -17.625,93.75 16.20207,23.46852 54.30045,32.48768 72.44515,32.375 23.3384,-0.14493 44.9623,-3.06438 75.8674,-28.40625 9.8859,13.54202 26.0604,28.14854 49.8101,27.81401 22.7555,-0.32054 65.7725,-7.95429 64.3773,-60.18901 l -17.625,0 c 2.4553,16.39213 -2.5884,27.99395 -13.625,30.09375 -3.2213,0.61288 -8.8158,-4.77434 -9.0937,-10.21875 l -0.3316,-141.557 c -1.065,-29.5869 -19.4777,-50.84003 -36.5043,-60.04428 -30.6967,-16.59402 -92.7663,-19.00913 -126.6588,-8.38652 z m 84.526,118.15775 c 2.5313,60.71859 -0.98,106.74526 -36.9376,107.7363 -13.3218,0.36717 -33.3922,-1.43164 -34.6562,-41.46875 l -0.8941,-28.32003 c -0.4873,-15.43885 8.312,-32.21884 34.1944,-34.41092 11.8611,-1.00456 29.6487,-2.9938 38.2935,-3.5366 z"
       id="path3695"
       sodipodi:nodetypes="czsscsccsssscsccsccszcssssc" />
    <path
       style="fill:#999999;fill-opacity:1;stroke:#999999;stroke-width:0.99999994;stroke-miterlimit:4;stroke-opacity:1;stroke-dasharray:none"
       d="m 1249.9375,74.5625 0,16.8125 37.0313,0 0,351.78125 -36.375,0 0,17.625 145.6562,0 0,-17.625 -27.7812,0 0,-100.50908 10.4597,-6.90323 64.3336,107.41231 -30.3559,0 0,17.625 158.4063,0 0,-17.625 -34.3008,0.32661 -98.6287,-154.23885 c 27.0129,-19.84227 61.355,-51.97451 91.5584,-54.52829 l 20.8086,-0.65322 0,-16.96875 -125.0938,0 -0.1633,17.0504 21.5306,0.0817 c 6.7753,0.13438 21.6621,1.21328 12.126,11.14095 -27.7641,28.90437 -63.49,56.37921 -89.3743,75.73202 l -1.3064,-229.72378 0.031,0 0,-46.534089 c -5.6095,23.416438 -21.7259,28.083756 -57.2864,29.718286 l -61.2761,0.0033 2e-4,3e-6 0,-4e-5 z"
       id="rect3726"
       sodipodi:nodetypes="ccccccccccccccccccccccccscccccccc" />
    <path
       style="fill:#999999;fill-opacity:1;stroke:#999999;stroke-width:1px;stroke-linecap:butt;stroke-linejoin:miter;stroke-opacity:1"
       d="m 309.20076,55.082192 c 0.15739,11.415514 -2.11009,19.020503 -8.04358,20.864639 C 285.21786,78.162835 267.45362,65.319238 250.34845,57.256395 227.32779,46.405176 199.67729,45.381996 183.22842,46.768038 157.34197,48.949326 132.52354,57.126217 109.33442,77.253274 90.092237,93.954582 69.468904,122.99641 70.861644,175.278 c 1.059628,39.77705 11.7221,60.04472 27.116667,75.21006 23.466859,23.11743 53.011499,35.07703 88.516209,41.62681 34.15192,6.30022 71.51859,16.13322 90.64399,35.10421 16.93308,16.79636 17.78844,41.32899 12.00933,64.11489 -8.19953,32.32913 -23.06067,40.80952 -36.028,45.76068 -16.46976,6.28845 -47.68249,14.07994 -77.59879,-1.79155 C 121.73011,406.7654 99.304352,346.93618 88.684322,298.58143 l -17.44003,0 -0.112075,156.12136 18.4759,0.32661 c 2.772414,-7.41341 2.15952,-20.13771 15.219413,-20.37952 11.08136,-0.20518 20.74336,3.70323 34.45098,9.23795 20.10379,8.11729 42.12555,17.15015 71.49564,18.74647 24.96182,1.35671 54.10137,1.42032 88.4794,-21.57389 25.31545,-16.93259 44.12648,-44.59974 50.69665,-83.08552 8.46284,-49.57232 3.1813,-92.86971 -24.77435,-120.36393 -22.20726,-21.84071 -57.4974,-32.47 -96.94244,-39.2845 -35.55234,-6.14201 -65.2459,-14.96172 -84.66254,-30.00013 -8.88877,-6.88446 -16.0863,-28.98364 -15.10733,-41.78531 1.12985,-14.77461 5.6202,-30.627674 24.88643,-46.899009 9.47961,-7.830391 23.04911,-15.793175 48.03735,-14.78072 23.79498,0.964107 47.4146,9.462643 65.53341,29.944089 20.89405,23.61858 36.09954,53.0506 41.89738,93.35934 l 19.07309,0.54114 0.11207,-133.567628 -18.80251,-0.05604 z"
       id="path3622"
       sodipodi:nodetypes="ccssssssssssccccssssssssscsscccc" />
    <rect
       style="fill:#a40a3e;fill-opacity:1;stroke:#a40a3e;stroke-width:1;stroke-miterlimit:4;stroke-opacity:1;stroke-dasharray:none"
       id="rect3666"
       width="1021.1971"
       height="21.595942"
       x="594.16425"
       y="547.37274" />
    <rect
       style="fill:#a40a3e;fill-opacity:1;stroke:#a40a3e;stroke-width:0.99999994;stroke-miterlimit:4;stroke-opacity:1;stroke-dasharray:none;display:inline"
       id="rect3666-4"
       width="302.43018"
       height="21.595942"
       x="28.83367"
       y="547.23145" />
  </g>
</svg>
